# xmcd CD database file
#
# Track frame offsets:
#	187
#	18415
#	38052
#
# Disc length: 750 seconds
#
# Revision: 0
# Processed by: cddbd v1.5.1PL0 Copyright (c) Steve Scherf et al.
# Submitted via: CDex 1.51
#
DISCID=1902ec03
DTITLE=小坂由美子 - BELIEVE ME
DYEAR=1993
DGENRE=Pop
TTITLE0=BELEIVE ME
TTITLE1=ダンスのD
TTITLE2=BELIEVE ME
EXTD=YEAR: 1993
EXTT0=
EXTT1=
EXTT2=
PLAYORDER=
